<svg xmlns="http://www.w3.org/2000/svg" width="103.93" height="62.705" viewBox="0 0 103.93 62.705">
  <g id="Group_48" data-name="Group 48" transform="translate(-164.136 -380.777)">
    <g id="Group_40" data-name="Group 40" transform="translate(220.587 399.328)">
      <path id="Path_203" data-name="Path 203" d="M220.147,415.1l.007,6.31-7.034.01c-.006-4.777,0-7.084,0-7.084-.013-11.442,5.442-17.453,14.663-17.466a13.655,13.655,0,0,1,5.662,1.1l.025,23.43-6.873.009-.007-6.314Zm3.508-12.008c-2.509,1.184-3.517,3.706-3.514,6.785l6.447-.032c.043-2.537-.082-4.956-.028-7.463a7.338,7.338,0,0,0-2.905.711h0" transform="translate(-213.118 -396.874)" fill="#006726"/>
    </g>
    <g id="Group_41" data-name="Group 41" transform="translate(185.947 399.999)">
      <rect id="Rectangle_1093" data-name="Rectangle 1093" width="7.327" height="23.925" transform="translate(0 0.011) rotate(-0.085)" fill="#006726"/>
    </g>
    <g id="Group_42" data-name="Group 42" transform="translate(196.499 399.956)">
      <path id="Path_204" data-name="Path 204" d="M214.249,397.419l-7.323.01.018,4.813c-3.093-2.994-7.74-5.043-14.727-4.759l.027,23.9,7.133-.01-.017-15.985s7.626.924,7.639,12.194l.014,3.777,7.264-.01Z" transform="translate(-192.217 -397.419)" fill="#006726"/>
    </g>
    <g id="Group_43" data-name="Group 43" transform="translate(244.082 399.612)">
      <path id="Path_205" data-name="Path 205" d="M254.312,421.327,249.2,411.005s1.71-.464,3.053-3.7a7.3,7.3,0,0,0-3.956-9.434s-3.663-1.511-14.8-.255l.026,23.733,7.318-.01-.021-18.44s4.076-.61,5.088,1.414c0,0,2.03,3.5-3.312,4.576l-1.255.337,5.516,12.109Z" transform="translate(-233.505 -397.12)" fill="#006726"/>
    </g>
    <g id="Group_44" data-name="Group 44" transform="translate(220.388 387.814)">
      <path id="Path_206" data-name="Path 206" d="M213.06,406.107s1.734-11.04,16.577-10.716c0,0,1.056-3.122-5.3-3.287-2.325-.059.171-4.334,2.291-4.858s-12.549-3.1-13.563,18.86h0" transform="translate(-212.946 -386.883)" fill="#d60812"/>
    </g>
    <g id="Group_45" data-name="Group 45" transform="translate(167.331 380.777)">
      <path id="Path_207" data-name="Path 207" d="M170.893,392.812s-3.988.554-.546-6.219c.771-1.518-1.242-3.259-3.1-3.331-1.533-.061,2.228-2.87,8.811-2.441,0,0,15.941.37,30.288,18.244,0,0-12.349-11.6-35.455-6.253h0" transform="translate(-166.908 -380.777)" fill="#00a1ed"/>
    </g>
    <g id="Group_46" data-name="Group 46" transform="translate(220.414 425.188)">
      <path id="Path_208" data-name="Path 208" d="M256.583,425.319c-.084,1.308-.174,6.7,3.773,9.219,1.285.821-2.21,3.393-8.795,3.036,0,0-24.049-.542-38.594-18.261,0,0,27.148,14.287,43.322,5.883,0,0,.254-.07.294.123h0" transform="translate(-212.968 -419.312)" fill="#006726"/>
    </g>
    <g id="Group_47" data-name="Group 47" transform="translate(164.136 400.015)">
      <path id="Path_209" data-name="Path 209" d="M172.126,409.078a3.855,3.855,0,0,0,1.532.31,3.127,3.127,0,1,0-.007-6.212l-2.179-.006.02,18.241-7.329.01-.026-23.932,12.926-.02c4.809-.007,7.332,4.474,7.337,8.132,0,4.307-4.591,8.664-10.507,8.673l-.08-.1Z" transform="translate(-164.136 -397.47)" fill="#006726"/>
    </g>
  </g>
</svg>
