<?xml version="1.0" encoding="utf-8"?>
<!-- Generator: Adobe Illustrator 27.0.0, SVG Export Plug-In . SVG Version: 6.00 Build 0)  -->
<svg version="1.1" id="Layer_1" xmlns="http://www.w3.org/2000/svg" xmlns:xlink="http://www.w3.org/1999/xlink" x="0px" y="0px"
	 viewBox="0 0 1000 1000" style="enable-background:new 0 0 1000 1000;" xml:space="preserve">
<style type="text/css">
	.st0{fill:url(#SVGID_1_);}
	.st1{fill:#FFFFFF;}
	.st2{fill:url(#SVGID_00000013898881429812999970000015532310632921232274_);}
	.st3{fill:none;}
	.st4{fill:#FFFFFF;stroke:#FFFFFF;stroke-width:1.810000e-02;}
	.st5{fill:url(#SVGID_00000135667582893543332910000013912456011540408503_);}
	.st6{fill:#E20613;}
	.st7{fill:url(#SVGID_00000176732442807230732180000008015654201227756185_);}
	.st8{fill:url(#SVGID_00000074415014502272970380000005371326585081726081_);}
	.st9{fill:#1B682E;}
	.st10{fill:url(#SVGID_00000122708578112990071840000015965467503898092689_);}
	.st11{fill:url(#SVGID_00000160889721323635345170000010120120271407792006_);}
	.st12{fill:url(#SVGID_00000153675444644226044590000003884797246135789963_);}
	.st13{fill-rule:evenodd;clip-rule:evenodd;fill:#E20613;}
	.st14{fill-rule:evenodd;clip-rule:evenodd;fill:#1D1D1B;}
</style>
<g>
	<g>
		<g>
			<g>
				<g>
					<g>
						<g>
							<g>
								<g>
									<g>
										<g>
											
												<linearGradient id="SVGID_1_" gradientUnits="userSpaceOnUse" x1="83.9499" y1="513.2116" x2="845.414" y2="513.2116" gradientTransform="matrix(1 0 0 -1 0 1000)">
												<stop  offset="0.2143" style="stop-color:#00713C"/>
												<stop  offset="0.5" style="stop-color:#AEC90B"/>
												<stop  offset="0.5332" style="stop-color:#A8C60D"/>
												<stop  offset="0.5795" style="stop-color:#96BD12"/>
												<stop  offset="0.6333" style="stop-color:#78AE1A"/>
												<stop  offset="0.693" style="stop-color:#4F9926"/>
												<stop  offset="0.7566" style="stop-color:#1A7E35"/>
												<stop  offset="0.7857" style="stop-color:#00713C"/>
											</linearGradient>
											<path class="st0" d="M201.1,327.6c-3.6,0.8-7.7,1.7-12.5,2.7c-115.6,23.1-117,53-122.7,74.5c-1.4,5.5-1.7,14.7-1.2,25.4
												l25.5,170.4c76.1,59.8,468.8,100.8,583.9,90.7c120.3-10.5,147.7-53.3,159.4-79.4c11.7-26.1,101.8-316.6,101.8-316.6
												C622.5,258.5,344.6,299.5,201.1,327.6z"/>
											<path class="st1" d="M567.9,677.1l33.4-8.8c0,0,163.6,10.8,188.5-60.8c1.1-3,1.7-5.7,3-8.1
												c18.1-49,88.6-274.6,88.6-274.6c-332.9-38.7-620.4,9.1-728.9,31.7C108,368.7,90.1,383.8,84.9,406
												c-7,29.3,14.4,190.6,14.4,190.6C170,651.5,593.3,678.7,567.9,677.1z"/>
										</g>
									</g>
								</g>
							</g>
						</g>
					</g>
				</g>
			</g>
		</g>
		<g>
			<g>
				<g>
					<g>
						<g>
							
								<radialGradient id="SVGID_00000009556556850006583020000005111012566754898607_" cx="-9097.0254" cy="-9551.2334" r="216.3376" gradientTransform="matrix(1.1161 -0.2097 -0.4436 -0.7395 6433.5186 -8145.752)" gradientUnits="userSpaceOnUse">
								<stop  offset="0.6842" style="stop-color:#E4E686"/>
								<stop  offset="0.8895" style="stop-color:#A6C613"/>
								<stop  offset="0.9205" style="stop-color:#A0C215"/>
								<stop  offset="0.9635" style="stop-color:#8EB81C"/>
								<stop  offset="1" style="stop-color:#79AD24"/>
							</radialGradient>
							<path style="fill:url(#SVGID_00000009556556850006583020000005111012566754898607_);" d="M600.4,668.1
								c-98.2-20.3-218.1-9.6-290,36.6C348.2,679,555.3,770.8,600.4,668.1z"/>
							<g>
								<path class="st3" d="M531.7,709.6L531.7,709.6L531.7,709.6c-33.3,6.3-75.1,1.7-115.1-4.7c-10.6-1.7-70.9-14-89-6.5"/>
								<g>
									<path class="st4" d="M326.1,698.7c3.8-1.4,11.6-4.3,30.8-2.9c18.9,0.7,44.8,5.4,72.8,9.8c56.8,9.9,102.4,4.7,102,4
										c0.9,0.7-44.9,8.5-102.5-1.5c-28.5-4.5-53.6-9.7-72.3-11C338.1,695,330.3,697.6,326.1,698.7z"/>
								</g>
							</g>
							
								<radialGradient id="SVGID_00000060710112685505466270000006121682186036068483_" cx="-9077.8613" cy="-9461.3896" r="184.0337" gradientTransform="matrix(1.1161 -0.2097 -0.4436 -0.7395 6433.5186 -8145.752)" gradientUnits="userSpaceOnUse">
								<stop  offset="0.6842" style="stop-color:#E4E686"/>
								<stop  offset="0.8947" style="stop-color:#A6C613"/>
								<stop  offset="0.9192" style="stop-color:#A2C214"/>
								<stop  offset="0.9446" style="stop-color:#95B815"/>
								<stop  offset="0.9703" style="stop-color:#81A518"/>
								<stop  offset="0.9962" style="stop-color:#648C1B"/>
								<stop  offset="1" style="stop-color:#5F881C"/>
							</radialGradient>
							<path style="fill:url(#SVGID_00000060710112685505466270000006121682186036068483_);" d="M600.4,668.1
								c-49.3-55.3-229.2-85.2-290,36.6C382.3,658.5,502.1,647.8,600.4,668.1z"/>
							<path class="st6" d="M500,622.8C500,622.8,500.1,622.8,500,622.8c-0.1,0-0.2,0-0.2,0C499.8,622.8,500,622.8,500,622.8z"/>
							<g>
								
									<linearGradient id="SVGID_00000031909763982964359660000004577324298011327124_" gradientUnits="userSpaceOnUse" x1="580.2296" y1="-129.1251" x2="845.4484" y2="-129.1251" gradientTransform="matrix(0.9315 -0.3637 0.3637 0.9315 -154.1507 1058.9307)">
									<stop  offset="0" style="stop-color:#A6C613"/>
									<stop  offset="0.5579" style="stop-color:#FFFFFF"/>
									<stop  offset="1" style="stop-color:#E4E686"/>
								</linearGradient>
								<path style="fill:url(#SVGID_00000031909763982964359660000004577324298011327124_);" d="M477.8,658.8
									c-15.4,0.3-50.9,3.7-83,11.6c-32.5,7.2-58.8,20.4-68.1,24.8c8.7-4.1,33-20.4,65.3-28.3c31.8-8.5,68.7-12.1,84.4-12.4
									c47-3.9,107.7,8.6,124.1,12.8c0.1,0.2,0,0.3-2-0.1C547.1,658.7,503.7,656.8,477.8,658.8z"/>
							</g>
						</g>
					</g>
					<g>
						<g>
							
								<radialGradient id="SVGID_00000044160894379199570830000007023287588666287255_" cx="-12171.8184" cy="2344.9302" r="17.774" gradientTransform="matrix(-0.9464 0.369 0.7264 0.6872 -12700.3564 3561.5798)" gradientUnits="userSpaceOnUse">
								<stop  offset="0" style="stop-color:#FFFFFF"/>
								<stop  offset="0.3053" style="stop-color:#E4E686"/>
								<stop  offset="0.6474" style="stop-color:#A6C613"/>
								<stop  offset="0.7194" style="stop-color:#94BC1A"/>
								<stop  offset="0.824" style="stop-color:#80B121"/>
								<stop  offset="0.8947" style="stop-color:#79AD24"/>
								<stop  offset="1" style="stop-color:#68941F"/>
							</radialGradient>
							<path style="fill:url(#SVGID_00000044160894379199570830000007023287588666287255_);" d="M513.2,691.6c-4.3-4-1-10,7.3-13.2
								c8.3-3.2,18.5-2.6,22.8,1.5c4.3,4.1,6.6,9.3-1.7,12.6C533.2,695.7,517.5,695.6,513.2,691.6z"/>
							<path class="st9" d="M513.2,691.6c0.8,0.8,2,1.4,3.5,1.9c-0.6-0.3-1.1-0.6-1.5-1c-4.3-4.1-1-10,7.3-13.2
								c6.2-2.4,13.4-2.7,18.5-0.9c-5-2.6-13.4-2.6-20.5,0.1C512.2,681.6,508.9,687.5,513.2,691.6z"/>
							<path class="st1" d="M535.3,691.5c-1.1-1-0.4-2.4,1.6-3.3c2-0.9,4.4-0.8,5.6,0.2c1.1,1,0.4,2.4-1.6,3.3
								C538.9,692.5,536.5,692.4,535.3,691.5z"/>
							<path class="st1" d="M517.2,691.3c0.1-0.5,1.1-0.6,2.2-0.4c1.1,0.2,1.9,0.8,1.7,1.2c-0.1,0.5-1.1,0.7-2.2,0.4
								C517.9,692.3,517.1,691.7,517.2,691.3z"/>
						</g>
						<g>
							
								<radialGradient id="SVGID_00000116948881253213786280000010535310916085498265_" cx="-11796.9658" cy="-1867.2896" r="6.447" gradientTransform="matrix(-1.1539 7.610000e-02 0.4088 0.9534 -12360.9766 3367.2158)" gradientUnits="userSpaceOnUse">
								<stop  offset="0" style="stop-color:#FFFFFF"/>
								<stop  offset="0.3053" style="stop-color:#E4E686"/>
								<stop  offset="0.6474" style="stop-color:#A6C613"/>
								<stop  offset="0.7194" style="stop-color:#94BC1A"/>
								<stop  offset="0.824" style="stop-color:#80B121"/>
								<stop  offset="0.8947" style="stop-color:#79AD24"/>
								<stop  offset="1" style="stop-color:#68941F"/>
							</radialGradient>
							<path style="fill:url(#SVGID_00000116948881253213786280000010535310916085498265_);" d="M483,691.9c-0.9-2,1.4-3.9,5.1-4.1
								c3.7-0.3,7.4,1.2,8.2,3.3c0.9,2,0.8,4.3-2.9,4.5C489.7,695.8,483.9,693.9,483,691.9z"/>
							<path class="st9" d="M483,691.9c0.1,0.4,0.5,0.7,1,1.1c-0.2-0.2-0.3-0.4-0.4-0.6c-0.9-2,1.4-3.9,5.1-4.1
								c2.7-0.2,5.5,0.6,7.1,1.8c-1.4-1.6-4.5-2.6-7.6-2.4C484.4,688,482.1,689.8,483,691.9z"/>
							<path class="st1" d="M491.2,694.4c-0.2-0.5,0.3-1,1.2-1.1c0.9-0.1,1.8,0.2,2.1,0.7c0.2,0.5-0.3,1-1.2,1.1
								C492.4,695.3,491.5,694.9,491.2,694.4z"/>
							<path class="st1" d="M484.5,692.2c0.1-0.2,0.5-0.1,0.9,0.1c0.3,0.2,0.5,0.5,0.4,0.7c-0.1,0.2-0.5,0.1-0.9-0.1
								C484.6,692.7,484.4,692.4,484.5,692.2z"/>
						</g>
					</g>
				</g>
				<g>
					
						<linearGradient id="SVGID_00000013181869288721472160000015852033451653293700_" gradientUnits="userSpaceOnUse" x1="698.5175" y1="-144.6491" x2="840.2441" y2="-144.6491" gradientTransform="matrix(0.9315 -0.3637 0.3637 0.9315 -154.1507 1058.9307)">
						<stop  offset="0" style="stop-color:#A6C613"/>
						<stop  offset="0.5579" style="stop-color:#FFFFFF"/>
						<stop  offset="1" style="stop-color:#E4E686"/>
					</linearGradient>
					<path style="fill:url(#SVGID_00000013181869288721472160000015852033451653293700_);" d="M593.3,663
						C562,634.7,493,613.3,426.6,625.8C426.6,625.8,525.9,610.3,593.3,663z"/>
				</g>
			</g>
			
				<linearGradient id="SVGID_00000183212805022471930150000010599453144591077782_" gradientUnits="userSpaceOnUse" x1="310.2627" y1="328.6922" x2="603.6906" y2="328.6922" gradientTransform="matrix(1 0 0 -1 0 1000)">
				<stop  offset="0" style="stop-color:#E4E686"/>
				<stop  offset="0.5158" style="stop-color:#AEC90B"/>
				<stop  offset="1" style="stop-color:#00713C"/>
			</linearGradient>
			<path style="fill:url(#SVGID_00000183212805022471930150000010599453144591077782_);" d="M310.3,704.8c-0.3-0.2,0.5-0.7,2.3-1.4
				c0.1-0.1,0.2-0.1,0.3-0.2C310.9,704,310,704.6,310.3,704.8z M600.1,664.4c-3.4-3.7-18.8-17.4-43.9-26.8
				c-21.2-8.9-44.6-13-53.1-14.3c42,6.9,78.7,24.1,97.2,44.8c-42.5,81.2-181.9,38-252.3,32.6c3.4,0.3,7,0.8,10.8,1.4
				c30.6,3.7,70.8,12.5,112.2,15.8c41.2,4.3,84.7-1.8,105-17c18-12.6,24.4-25.8,26-29.4c0.9-1.8,1.6-3.2,1.6-3.2
				C603,667.2,601.6,665.8,600.1,664.4z"/>
		</g>
		<g>
			<g>
				<g>
					<g>
						<g>
							<g>
								<g>
									<path class="st6" d="M133.6,569.3h51.8l10.1-123.8l35-0.1l4.9-44.1H111.8l-4.7,44.4l37.5,0L133.6,569.3L133.6,569.3z"/>
								</g>
								<g>
									<path class="st6" d="M421.5,571h40.4l15.4-89.4l12.4,76.2h48.3l-25.1-162.6h-49.5l-19,80.1l-10.8-80.6h-59.2l-23,171.3h47
										l12.5-86.3L421.5,571z"/>
								</g>
								<g>
									<path class="st6" d="M743.8,554h56.8l-48.5-92.4l47.8-81.9h-55.7l-29.9,58.1l4.8-61.7h-51.8l-13.6,169.2h51.8l4.4-56.8
										L743.8,554L743.8,554z"/>
								</g>
							</g>
							<g>
								<path class="st6" d="M546.4,565.5h90.9l3-42.1h-38.8l2.4-31l29.9-0.1l2.5-32.5h-29.9l1.9-24.2l38.6-0.1l3.4-41.6H560
									L546.4,565.5L546.4,565.5z"/>
							</g>
						</g>
					</g>
					<path class="st13" d="M300,555.1h44l-19.5-176h-61l-53.7,183.6l50.9,0.3l7.9-35.6h28.4L300,555.1z M276.5,492.5l11.6-52.1
						l5.4,52.1H276.5z"/>
				</g>
			</g>
		</g>
		<path class="st14" d="M681.1,561.4h-3.5v3.5h2.2c1.7,0,2.7,0,3-0.1c1-0.2,1.5-0.7,1.5-1.5c0-0.8-0.3-1.3-0.9-1.6
			C682.9,561.5,682.1,561.4,681.1,561.4z M682.5,567l3.6,6.6h-2.3l-3.6-6.6h-2.6v6.6h-2.1v-14.2h6c3.3,0,4.9,1.3,4.9,3.7
			c0,1.2-0.4,2.1-1,2.8C684.6,566.6,683.7,567,682.5,567z M680.3,555.8c-2.9,0-5.4,1-7.5,3.1c-2.1,2-3.1,4.5-3.1,7.5
			c0,3,1,5.5,3.1,7.5c2.1,2,4.6,3.1,7.5,3.1c3,0,5.5-1,7.5-3.1c2.1-2,3.1-4.5,3.1-7.5c0-2.9-1-5.4-3.1-7.5
			C685.8,556.9,683.3,555.8,680.3,555.8z M680.3,579c-3.5,0-6.5-1.2-8.9-3.6c-2.5-2.4-3.7-5.4-3.7-9c0-3.5,1.2-6.5,3.7-8.9
			c2.4-2.4,5.4-3.7,8.9-3.7c3.5,0,6.5,1.2,9,3.7c2.5,2.4,3.7,5.4,3.7,8.9c0,3.5-1.2,6.6-3.7,9C686.9,577.8,683.9,579,680.3,579z"/>
	</g>
</g>
</svg>
